<svg xmlns="http://www.w3.org/2000/svg" enable-background="new 0 0 512 512" viewBox="0 0 512 512" id="hearts"><path fill="#ffc970" d="M299,163h158l0,0c30.5-47.2,31.1-107.8,1.5-155.6L457,5h-1.5C392.1,5,336,46.1,316.9,106.6
			L299,163z"></path><path fill="#ffb233" d="M339.3,62.9c-9.7,12.9-17.4,27.6-22.5,43.6L299,163h158l0,0c4.5-7,8.4-14.4,11.6-21.9
			C434,102.4,388.8,75.5,339.3,62.9z"></path><path fill="#d7d5c1" d="M299,163h158l0,0c30.5-47.2,31.1-107.8,1.5-155.6L457,5L299,163z"></path><path fill="#ffc970" d="M213,163H55l0,0C24.5,115.8,23.9,55.2,53.5,7.4L55,5h1.5C119.9,5,176,46.1,195.1,106.6
			L213,163z"></path><path fill="#ffb233" d="M195.1,106.6c-5.1-16-12.8-30.7-22.5-43.6C123.2,75.5,78,102.4,43.4,141.1
			c3.2,7.5,7.1,14.9,11.6,21.9l0,0h158L195.1,106.6z"></path><path fill="#d7d5c1" d="M213,163H55l0,0C24.5,115.8,23.9,55.2,53.5,7.4L55,5L213,163z"></path><path fill="#ffc970" d="M372.3,487.4L372.3,487.4c-34.6,12.9-71.2,19.6-108.1,19.6h-16.3
			c-36.9,0-73.6-6.6-108.1-19.6l0,0C58.7,457.1,5,379.7,5,293.2v0c0-50.4,18.3-99,51.6-136.9l0,0C102,104.6,167.4,75,236.2,75h39.6
			c68.8,0,134.2,29.6,179.6,81.3l0,0c33.3,37.9,51.6,86.5,51.6,136.9v0C507,379.7,453.3,457.1,372.3,487.4z"></path><path fill="#ffb233" d="M372.3,445.4L372.3,445.4c-34.6,12.9-71.2,19.6-108.1,19.6h-16.3
			c-36.9,0-73.6-6.6-108.1-19.6l0,0C65.3,417.6,14,350,6.1,272.2C5.4,279.2,5,286.1,5,293.2v0c0,86.5,53.7,163.9,134.7,194.3l0,0
			c34.6,12.9,71.2,19.6,108.1,19.6h16.3c36.9,0,73.6-6.6,108.1-19.6l0,0c81-30.3,134.7-107.7,134.7-194.3v0c0-7-0.4-14-1.1-20.9
			C498,350,446.7,417.6,372.3,445.4z"></path><path fill="#ebeae0" d="M256,240L256,240c-12.4,0-23.9,6.5-30.2,17.2l-8.4,14.1c-6.5,11-18.4,17.7-31.1,17.7h0
			c-20,0-36.2,16.2-36.2,36.2v165.8c31.5,10.5,64.6,15.9,97.8,15.9h16.3c33.3,0,66.3-5.4,97.8-15.9V325.2c0-20-16.2-36.2-36.2-36.2
			h0c-12.8,0-24.6-6.7-31.1-17.7l-8.4-14.1C279.9,246.5,268.4,240,256,240z"></path><path fill="#e36414" d="M231 75.1c0 38.6 11.2 69.9 25 69.9s25-31.3 25-69.9c-1.7 0-3.5-.1-5.2-.1h-39.6C234.5 75 232.7 75 231 75.1zM207.6 128.7c7.7-2.8 6.8-25.3-1.7-51.8-10.9 1.4-21.6 3.5-32.1 6.4C184.5 111.5 199.4 131.7 207.6 128.7zM306.2 77c-8.5 26.5-9.4 49-1.7 51.8 8.2 3 23.1-17.2 33.8-45.4C327.8 80.5 317 78.3 306.2 77z"></path><rect width="10" height="60" x="251" y="260" fill="#b24e10"></rect><rect width="10" height="41.2" x="103" y="303.4" fill="#b24e10" transform="rotate(75.96 108 324.015)"></rect><rect width="41.2" height="10" x="87.4" y="289" fill="#b24e10" transform="rotate(14.035 108.012 294.045)"></rect><rect width="10" height="41.2" x="399" y="273.4" fill="#b24e10" transform="rotate(75.96 404.013 294.017)"></rect><rect width="41.2" height="10" x="383.4" y="319" fill="#b24e10" transform="rotate(14.035 404.056 324.053)"></rect><path fill="#e36414" d="M261.9,240h-11.7c-7.8,0-14.1,6.3-14.1,14.1v0c0,3.8,1.5,7.3,4.1,10L256,280l15.9-15.9
			c2.7-2.7,4.1-6.2,4.1-10v0C276,246.3,269.7,240,261.9,240z"></path><path fill="#b24e10" d="M217 260h-10v-20c0-8.3-6.7-15-15-15s-15 6.7-15 15v20h-10v-20c0-13.8 11.2-25 25-25s25 11.2 25 25V260zM345 260h-10v-20c0-8.3-6.7-15-15-15s-15 6.7-15 15v20h-10v-20c0-13.8 11.2-25 25-25s25 11.2 25 25V260zM304 325h-96c-13.8 0-25-11.2-25-25h10c0 8.3 6.7 15 15 15h96c8.3 0 15-6.7 15-15h10C329 313.8 317.8 325 304 325z"></path><path fill="#e36414" d="M9.2 334.5c2.1 10.6 5.1 20.9 8.8 30.9 25.8-10.5 43.6-24.2 40.8-31.9C56 325.9 34.7 326.6 9.2 334.5zM58.7 280.6c3.1-8.4-18.5-24-48.2-34.8 0 0 0 0 0 0-2.5 10.7-4.2 21.6-5 32.7C32.7 287.3 55.9 288.4 58.7 280.6zM501.5 245.7C501.5 245.7 501.5 245.7 501.5 245.7c-29.7 10.8-51.3 26.4-48.2 34.8 2.9 7.8 26.1 6.7 53.2-2.2C505.7 267.3 504 256.4 501.5 245.7zM453.3 333.4c-2.8 7.7 15 21.4 40.8 31.9 3.7-10 6.7-20.3 8.8-30.9C477.3 326.6 456 325.9 453.3 333.4z"></path><path fill="#ebeae0" d="M48.7 152.2l20.2-21.9c21.8-23.7 25.5-58.9 9.1-86.5L55 5l-1.5 2.4C26.1 51.6 24.6 106.8 48.7 152.2zM463.3 152.2l-20.2-21.9c-21.8-23.7-25.5-58.9-9.1-86.5L457 5l1.5 2.4C485.9 51.6 487.4 106.8 463.3 152.2z"></path><path fill="#d7d5c1" d="M264.2,465h-16.3c-33.3,0-66.3-5.4-97.8-15.9v42c31.5,10.5,64.6,15.9,97.8,15.9h16.3
			c33.3,0,66.3-5.4,97.8-15.9v-42C330.5,459.6,297.4,465,264.2,465z"></path><path fill="#db3429" d="M355 11L355 11c-8-8-21-8-29 0l0 0c-8 8-8 21 0 29l29 29 29-29c8-8 8-21 0-29l0 0C376 3 363 3 355 11L355 11zM40 198L40 198c-8-8-21-8-29 0l0 0c-8 8-8 21 0 29l29 29 29-29c8-8 8-21 0-29l0 0C61 190 48 190 40 198L40 198zM472 373L472 373c-8-8-21-8-29 0h0c-8 8-8 21 0 29l29 29 29-29c8-8 8-21 0-29h0C493 365 480 365 472 373L472 373z"></path><rect width="10" height="40" x="251" y="280" fill="#4d2419"></rect><path fill="#4d2419" d="M304 325h-96c-13.8 0-25-11.2-25-25h10c0 8.3 6.7 15 15 15h96c8.3 0 15-6.7 15-15h10C329 313.8 317.8 325 304 325zM205.9 134c-14.2 0-29.5-29.9-36.8-49l9.3-3.6c11.5 30.3 24 42.5 27.3 42.5.1 0 .1 0 .1 0 2.3-1.5 4.4-16.9-4.8-45.6l9.5-3c2.8 8.6 15.6 51.8-1.3 58C208.1 133.8 207 134 205.9 134zM306.1 134c-1.1 0-2.3-.2-3.4-.6-17-6.2-4.1-49.4-1.3-58l9.5 3c-9.2 28.7-7.1 44-4.7 45.6 0 0 .1 0 .1 0 3.2 0 15.7-12.2 27.2-42.5l9.3 3.6C335.7 104.1 320.4 134 306.1 134zM256 150c-19.5 0-30-38.6-30-75h10c0 39.7 11.8 65 20 65 8.2 0 20-25.3 20-65h10C286 111.4 275.5 150 256 150z"></path><rect width="10" height="41.2" x="103" y="303.4" fill="#4d2419" transform="rotate(75.96 108 324.015)"></rect><rect width="41.2" height="10" x="87.4" y="289" fill="#4d2419" transform="rotate(14.035 108.012 294.045)"></rect><rect width="10" height="41.2" x="399" y="273.4" fill="#4d2419" transform="rotate(75.96 404.013 294.017)"></rect><rect width="41.2" height="10" x="383.4" y="319" fill="#4d2419" transform="rotate(14.035 404.056 324.053)"></rect><path fill="#4d2419" d="M256 285c-1.3 0-2.6-.5-3.5-1.5l-15.9-15.9c-3.6-3.6-5.6-8.4-5.6-13.5 0-10.6 8.6-19.1 19.1-19.1h11.7c10.6 0 19.1 8.6 19.1 19.1 0 5.1-2 9.9-5.6 13.5l-15.9 15.9C258.6 284.5 257.3 285 256 285zM250.1 245c-5 0-9.1 4.1-9.1 9.1 0 2.4 1 4.7 2.7 6.5l12.3 12.3 12.3-12.3c1.7-1.7 2.7-4 2.7-6.5 0-5-4.1-9.1-9.1-9.1H250.1zM50.8 165.7c-.6-1-1.2-1.9-1.8-2.9-14.6-23.8-22.3-51.1-22.3-79 0-28 7.8-55.3 22.6-79l1.5-2.4C51.7.9 53.3 0 55 0h1.5c55.1 0 105.7 30 132 78.3l-8.8 4.8c-24.4-44.7-71.1-72.7-122-73.1l0 0c-28.2 45.5-28.3 102-.3 147.5.6.9 1.1 1.8 1.7 2.7L50.8 165.7z"></path><rect width="125.4" height="10" x="36.6" y="44.3" fill="#4d2419" transform="rotate(45.001 99.321 49.32)"></rect><rect width="125.4" height="10" x="36.6" y="44.3" fill="#4d2419" transform="rotate(45.001 99.321 49.32)"></rect><rect width="10" height="125.4" x="407.7" y="-13.4" fill="#4d2419" transform="rotate(45.001 412.682 49.316)"></rect><path fill="#4d2419" d="M411.1 123.1C371.4 94.9 324.6 80 275.8 80h-39.6c-48.7 0-95.5 14.9-135.3 43.1l-5.8-8.2C136.6 85.5 185.4 70 236.2 70h39.6c50.8 0 99.6 15.5 141.1 44.9L411.1 123.1zM217 260h-10v-20c0-8.3-6.7-15-15-15s-15 6.7-15 15v20h-10v-20c0-13.8 11.2-25 25-25s25 11.2 25 25V260zM345 260h-10v-20c0-8.3-6.7-15-15-15s-15 6.7-15 15v20h-10v-20c0-13.8 11.2-25 25-25s25 11.2 25 25V260zM355 74c-1.3 0-2.6-.5-3.5-1.5l-29-29c-9.9-9.9-9.9-26.1 0-36.1 8.8-8.8 22.6-9.8 32.5-3 9.9-6.9 23.7-5.9 32.5 3 9.9 9.9 9.9 26.1 0 36.1l-29 29C357.6 73.5 356.3 74 355 74zM340.5 10c-4 0-7.9 1.5-11 4.5-6 6-6 15.9 0 21.9L355 61.9l25.5-25.5c6-6 6-15.9 0-21.9-6-6-15.9-6-21.9 0-2 2-5.1 2-7.1 0C348.4 11.5 344.5 10 340.5 10zM40 261c-1.3 0-2.6-.5-3.5-1.5l-29-29c-9.9-9.9-9.9-26.1 0-36.1 8.8-8.8 22.6-9.8 32.5-3 9.9-6.9 23.7-5.9 32.5 3 9.9 9.9 9.9 26.1 0 36.1l-29 29C42.6 260.5 41.3 261 40 261zM25.5 197c-4 0-7.9 1.5-11 4.5-6 6-6 15.9 0 21.9L40 248.9l25.5-25.5c6-6 6-15.9 0-21.9-6-6-15.9-6-21.9 0-2 2-5.1 2-7.1 0C33.4 198.5 29.5 197 25.5 197zM472 436c-1.3 0-2.6-.5-3.5-1.5l-29-29c-9.9-9.9-9.9-26.1 0-36.1 8.8-8.8 22.6-9.8 32.5-3 9.9-6.9 23.7-5.9 32.5 3 9.9 9.9 9.9 26.1 0 36.1l-29 29C474.6 435.5 473.3 436 472 436zM457.5 372c-4 0-7.9 1.5-11 4.5-6 6-6 15.9 0 21.9l25.5 25.5 25.5-25.5c6-6 6-15.9 0-21.9-6-6-15.9-6-21.9 0-2 2-5.1 2-7.1 0C465.4 373.5 461.5 372 457.5 372z"></path><path fill="#4d2419" d="M35.3 195.2l-8.8-4.8c7.4-13.3 16.2-25.9 26.3-37.3 3.1-3.6 6.4-7.1 9.8-10.5l7.1 7c-3.2 3.3-6.4 6.6-9.4 10.1C50.8 170.5 42.3 182.5 35.3 195.2zM264.2 512h-16.3c-37.7 0-74.6-6.7-109.9-19.9-40.7-15.2-75.3-42.2-100.1-77.9C13.1 378.5 0 336.6 0 293.2c0-21.8 3.3-43.3 9.9-64l9.5 3c-6.2 19.8-9.4 40.3-9.4 61 0 84 52.8 160.1 131.5 189.6 34.1 12.8 69.9 19.3 106.4 19.3h16.3c36.5 0 72.3-6.5 106.4-19.3 34.7-13 65.1-35.2 88.1-64.3l7.9 6.2c-24 30.5-56 53.9-92.4 67.5C338.8 505.3 301.8 512 264.2 512zM497.7 369.7l-9.3-3.6c9-23.3 13.6-47.9 13.6-73 0-49.2-17.9-96.6-50.4-133.6-3.4-3.8-6.9-7.6-10.5-11.2l7.1-7.1c3.8 3.8 7.4 7.7 10.9 11.7 34.1 38.8 52.8 88.6 52.8 140.2C512 319.5 507.2 345.2 497.7 369.7zM332.3 83.1l-8.8-4.8c4.6-8.5 10.1-16.6 16.3-24.1l7.7 6.4C341.7 67.6 336.6 75.2 332.3 83.1z"></path><path fill="#4d2419" d="M461.2,165.7l-8.4-5.4c0.6-0.9,1.1-1.8,1.7-2.7c28-45.5,27.9-102.1-0.3-147.5l0,0
				c-21.7,0.2-43.2,5.5-62.5,15.3l-4.5-8.9C408.2,5.7,431.9,0,455.5,0h1.5c1.7,0,3.3,0.9,4.3,2.4l1.5,2.4
				c14.7,23.8,22.5,51.1,22.6,79c0,27.9-7.7,55.2-22.3,79C462.4,163.8,461.8,164.8,461.2,165.7z"></path></svg>